<svg xmlns="http://www.w3.org/2000/svg" xmlns:xlink="http://www.w3.org/1999/xlink" width="24" height="24" viewBox="0 0 24 24">
  <defs>
    <clipPath id="clip-instagram">
      <rect width="24" height="24"/>
    </clipPath>
  </defs>
  <g id="instagram" clip-path="url(#clip-instagram)">
    <path id="Group_88" data-name="Group 88" d="M11.775,23.549A11.775,11.775,0,1,1,23.549,11.775,11.788,11.788,0,0,1,11.775,23.549Zm0-22.43A10.656,10.656,0,1,0,22.43,11.775,10.667,10.667,0,0,0,11.775,1.119ZM15.745,7a.871.871,0,1,0,.616.255A.871.871,0,0,0,15.745,7ZM11.871,8.115a3.664,3.664,0,1,0,2.586,1.073A3.664,3.664,0,0,0,11.871,8.115Zm0,6a2.347,2.347,0,1,1,1.657-.688A2.348,2.348,0,0,1,11.871,14.119Zm7.384-5.386a4.464,4.464,0,0,0-4.464-4.464H8.9A4.465,4.465,0,0,0,4.436,8.733v5.892A4.465,4.465,0,0,0,8.9,19.089h5.891a4.464,4.464,0,0,0,4.464-4.464Zm-1.394,5.892a3.067,3.067,0,0,1-3.067,3.066H8.9a3.065,3.065,0,0,1-3.066-3.066V8.733A3.065,3.065,0,0,1,8.9,5.667h5.891a3.067,3.067,0,0,1,3.067,3.066Z" transform="translate(0.225 0.225)" fill="#fff"/>
  </g>
</svg>
