<svg xmlns="http://www.w3.org/2000/svg" xmlns:xlink="http://www.w3.org/1999/xlink" width="24" height="24" viewBox="0 0 24 24">
  <defs>
    <clipPath id="clip-whatsapp">
      <rect width="24" height="24"/>
    </clipPath>
  </defs>
  <g id="whatsapp" clip-path="url(#clip-whatsapp)">
    <g id="Group_89" data-name="Group 89" transform="translate(0.319 0.567)">
      <path id="Path_3" data-name="Path 3" d="M11.681,22.866A11.572,11.572,0,0,1,0,11.433,11.573,11.573,0,0,1,11.681,0,11.572,11.572,0,0,1,23.363,11.433,11.572,11.572,0,0,1,11.681,22.866Zm0-21.638A10.329,10.329,0,0,0,1.255,11.433a10.328,10.328,0,0,0,10.427,10.2,10.328,10.328,0,0,0,10.426-10.2A10.329,10.329,0,0,0,11.681,1.228Z" fill="#fff"/>
      <path id="Path_4" data-name="Path 4" d="M17.959,8a6.958,6.958,0,0,0-5.847,10.731L11.054,21.06a.607.607,0,0,0,.553.859.6.6,0,0,0,.161-.021l2.913-.8A6.958,6.958,0,1,0,17.959,8Zm0,12.7a5.739,5.739,0,0,1-2.892-.782.608.608,0,0,0-.307-.083.592.592,0,0,0-.161.022l-1.9.522.66-1.461a.609.609,0,0,0-.061-.607A5.742,5.742,0,1,1,17.959,20.7Z" transform="translate(-5.532 -4.023)" fill="#fff" fill-rule="evenodd"/>
      <path id="Path_5" data-name="Path 5" d="M24.134,19.941a1.28,1.28,0,0,0-1.026-.213c-.267.1-.437.485-.61.682a.27.27,0,0,1-.331.066,4.568,4.568,0,0,1-2.321-1.833.249.249,0,0,1,.036-.359,1.434,1.434,0,0,0,.422-.631,1.3,1.3,0,0,0-.188-.747,1.773,1.773,0,0,0-.6-.831.877.877,0,0,0-.891.121A1.61,1.61,0,0,0,18,17.515a1.743,1.743,0,0,0,.056.419,3.328,3.328,0,0,0,.436.926,7.08,7.08,0,0,0,.458.638,6.837,6.837,0,0,0,1.973,1.688,6.213,6.213,0,0,0,1.23.543,2.922,2.922,0,0,0,1.432.209,1.725,1.725,0,0,0,1.3-.891.723.723,0,0,0,.061-.455C24.872,20.278,24.409,20.092,24.134,19.941Z" transform="translate(-9.052 -8.047)" fill="#fff" fill-rule="evenodd"/>
    </g>
  </g>
</svg>
