<?xml version="1.0" standalone="no"?>
<!DOCTYPE svg PUBLIC "-//W3C//DTD SVG 20010904//EN"
 "http://www.w3.org/TR/2001/REC-SVG-20010904/DTD/svg10.dtd">
<svg version="1.0" xmlns="http://www.w3.org/2000/svg"
 width="260.000000pt" height="260.000000pt" viewBox="0 0 260.000000 260.000000"
 preserveAspectRatio="xMidYMid meet">
<metadata>
Created by potrace 1.14, written by Peter Selinger 2001-2017
</metadata>
<g transform="translate(0.000000,260.000000) scale(0.100000,-0.100000)"
fill="#000000" stroke="none">
<path d="M1158 2579 c-487 -60 -892 -378 -1064 -836 -63 -167 -91 -380 -74
-551 39 -374 201 -673 489 -904 85 -68 70 -74 145 61 l47 85 -33 25 c-63 48
-160 146 -209 211 -68 88 -143 244 -176 365 -25 91 -28 116 -28 265 0 149 3
175 28 263 131 473 538 787 1018 787 580 0 1049 -470 1049 -1051 0 -276 -101
-524 -296 -729 l-73 -76 65 -99 65 -99 103 105 c247 251 369 549 369 899 0
355 -124 654 -377 905 -119 119 -202 179 -342 249 -210 104 -483 153 -706 125z
m110 -21 c7 -7 12 -20 12 -30 0 -10 7 -18 15 -18 18 0 19 14 5 41 -6 10 -7 19
-2 19 14 0 32 -23 32 -42 0 -14 8 -18 40 -18 22 0 40 -4 40 -9 0 -6 -15 -7
-34 -4 -20 3 -36 1 -41 -6 -5 -8 1 -10 18 -6 41 11 75 -38 44 -64 -19 -15 -28
-3 -14 20 8 14 9 21 0 30 -16 16 -53 -6 -53 -31 0 -11 -4 -20 -10 -20 -5 0
-10 18 -10 40 0 22 -4 40 -10 40 -5 0 -10 -18 -10 -41 0 -31 -3 -40 -14 -36
-7 3 -18 1 -23 -4 -6 -6 -19 -6 -36 0 -31 12 -36 44 -9 61 13 9 1 10 -52 6
-67 -5 -113 -22 -59 -21 21 0 30 -7 37 -27 12 -34 9 -38 -40 -41 -38 -2 -39
-1 -41 32 -1 19 -7 37 -13 41 -12 7 64 23 168 36 54 6 59 12 42 45 -12 21 -1
26 18 7z m-107 -35 c13 -15 12 -15 -8 -4 -24 12 -29 21 -14 21 5 0 15 -7 22
-17z m387 -39 c76 -15 126 -38 67 -30 -17 2 -23 1 -15 -1 26 -8 32 -20 25 -51
-6 -28 -8 -29 -42 -22 -64 15 -71 49 -10 51 30 2 30 2 5 6 -18 3 -25 9 -22 18
6 15 -14 22 -71 27 -27 3 -30 0 -33 -29 -3 -28 0 -33 18 -33 12 0 25 10 32 25
25 54 34 -3 12 -77 -10 -33 -114 -18 -114 16 0 16 27 29 42 20 7 -4 4 -10 -6
-16 -9 -5 -14 -13 -11 -19 9 -13 49 -11 63 3 19 19 14 38 -10 38 -35 0 -45 11
-50 53 -5 44 1 46 120 21z m-376 -39 c2 -22 0 -34 -6 -32 -14 4 -21 67 -8 67
6 0 12 -16 14 -35z m-152 14 c0 -7 -5 -29 -12 -51 -9 -31 -16 -38 -32 -36 -11
2 -25 12 -31 24 -6 11 -16 19 -24 16 -8 -3 -11 0 -7 6 3 6 0 12 -6 14 -14 5
66 36 95 37 9 1 17 -4 17 -10z m-205 -29 c3 -5 -1 -10 -9 -10 -8 0 -18 5 -21
10 -3 6 1 10 9 10 8 0 18 -4 21 -10z m992 -30 c74 -34 189 -107 256 -163 39
-34 50 -39 57 -27 6 8 10 22 10 30 0 10 3 11 10 4 8 -8 7 -19 0 -39 -9 -25 -7
-31 27 -69 21 -22 51 -57 66 -76 l27 -35 20 25 c19 24 20 24 20 4 0 -12 -7
-27 -15 -34 -13 -11 -12 -18 11 -54 27 -42 79 -151 95 -196 8 -23 8 -23 -5 -7
-10 13 -15 15 -18 5 -3 -8 -9 -5 -17 10 -6 12 -18 22 -26 22 -8 0 -15 7 -15
15 0 8 5 15 11 15 8 0 8 5 -1 15 -17 21 -29 19 -40 -7 -9 -21 -9 -20 -7 7 1
23 8 31 24 33 22 3 30 -6 47 -62 4 -10 9 -16 13 -13 8 8 -23 79 -54 127 -23
35 -33 36 -11 0 10 -15 9 -23 -6 -39 -26 -28 -39 -26 -60 10 -19 31 -15 61 6
58 7 -1 21 1 31 6 13 6 15 10 6 21 -9 11 -16 10 -41 -7 -38 -27 -52 -14 -15
15 15 12 27 26 27 31 -1 12 -46 65 -56 65 -13 0 -44 -33 -44 -45 0 -19 28 -26
50 -13 29 19 38 -1 10 -22 -14 -11 -27 -20 -30 -20 -3 0 -16 16 -28 35 -25 35
-23 50 11 74 17 12 17 14 2 31 -17 19 -45 17 -45 -2 0 -6 7 -8 15 -4 9 3 15 0
15 -9 0 -8 -7 -15 -15 -15 -8 0 -15 -4 -15 -10 0 -5 -4 -10 -10 -10 -5 0 -10
14 -10 31 0 27 -2 30 -15 19 -28 -23 -29 0 -1 29 l27 28 -37 33 -38 33 -19
-24 c-10 -12 -16 -31 -13 -41 4 -16 2 -17 -10 -7 -20 16 -17 43 7 64 l20 19
-23 18 c-26 20 -43 23 -32 6 4 -6 3 -8 -3 -5 -6 4 -23 -3 -37 -14 -34 -26 -44
-18 -22 16 13 19 23 24 39 20 22 -6 22 -6 2 10 -11 9 -38 26 -59 37 -38 19
-40 20 -53 2 -7 -10 -13 -26 -13 -36 0 -24 38 -24 56 -1 17 25 28 10 13 -19
-6 -12 -13 -24 -14 -26 -5 -6 -67 32 -72 45 -3 8 0 26 6 40 10 21 9 28 -1 34
-21 14 -32 10 -19 -5 10 -11 8 -16 -9 -21 -16 -5 -19 -10 -11 -18 14 -14 14
-57 1 -57 -6 0 -24 10 -40 21 -19 15 -38 20 -59 17 -40 -6 -41 11 -1 18 16 4
28 9 27 13 -4 15 25 51 41 51 15 -1 15 -2 -2 -15 -11 -8 -16 -15 -10 -15 5 0
2 -5 -6 -11 -11 -8 -9 -9 10 -4 29 8 50 25 31 25 -7 0 -10 4 -6 10 3 5 -7 16
-22 25 -27 15 -27 15 -3 9 14 -4 53 -19 87 -34z m-970 4 c-3 -4 0 -19 8 -35
17 -32 19 -49 6 -49 -5 0 -15 16 -21 35 -13 39 -13 39 -43 23 l-22 -12 25 -6
c30 -7 38 -41 15 -60 -21 -18 -29 -7 -14 19 7 11 10 23 7 27 -13 12 -38 -5
-38 -26 0 -11 -7 -20 -15 -20 -8 0 -15 5 -15 11 0 8 -5 8 -15 -1 -21 -17 -19
-29 8 -40 20 -9 19 -9 -8 -7 -23 1 -31 8 -33 25 -3 18 4 26 32 37 19 8 37 19
41 25 9 15 2 13 -51 -17 -27 -14 -42 -19 -34 -10 8 8 47 31 85 51 65 33 97 45
82 30z m-208 -121 c-13 -16 -17 -22 -9 -15 21 18 47 15 64 -10 14 -20 13 -23
-16 -45 -41 -30 -47 -29 -59 7 -6 17 -17 30 -25 30 -19 0 -18 -24 1 -40 8 -7
15 -20 15 -29 0 -15 -49 -68 -78 -85 -17 -10 -42 11 -42 35 0 23 -13 24 -31 3
-10 -13 -10 -17 1 -24 12 -7 10 -14 -9 -34 -14 -14 -22 -28 -19 -31 3 -3 13 6
22 20 20 30 46 33 46 5 0 -11 5 -20 10 -20 6 0 10 -4 10 -10 0 -5 -9 -10 -19
-10 -11 0 -23 -4 -26 -10 -3 -5 -13 -10 -21 -10 -8 0 -13 4 -10 9 3 5 -3 11
-14 14 -25 7 -25 18 0 45 12 12 16 22 11 22 -5 0 -18 -12 -29 -27 -11 -16 -23
-25 -26 -22 -3 3 29 43 71 89 89 96 255 225 182 143z m1351 -23 c0 -5 -9 -10
-20 -10 -11 0 -20 5 -20 10 0 6 9 10 20 10 11 0 20 -4 20 -10z m90 -65 c0 -3
-7 -17 -16 -31 -13 -19 -20 -22 -30 -13 -11 9 -10 14 9 30 22 18 37 24 37 14z
m-1735 -215 c-4 -12 -2 -20 5 -20 7 0 8 -6 0 -19 -15 -28 -12 -35 6 -20 15 12
16 11 9 -11 -7 -22 -6 -23 9 -11 9 7 16 25 16 39 0 19 3 23 11 15 13 -13 -12
-67 -37 -81 -9 -5 -15 -12 -15 -15 3 -23 -1 -37 -20 -61 -20 -26 -22 -26 -41
-9 -13 12 -17 25 -13 43 5 24 5 24 -10 6 -24 -32 -59 -146 -47 -158 6 -6 9
-27 6 -47 l-4 -36 9 33 c12 44 17 48 46 32 30 -16 30 -18 1 -53 -20 -25 -26
-27 -50 -17 -25 9 -28 14 -23 43 6 32 -3 19 -17 -27 -4 -10 -9 -17 -11 -14 -8
7 41 169 70 232 30 65 94 176 101 176 3 0 2 -9 -1 -20z m-73 -232 c-9 -9 -12
-9 -12 1 0 7 -5 9 -12 5 -9 -5 -8 -2 1 10 10 12 17 14 25 6 7 -7 6 -14 -2 -22z
m2088 -1 c9 -3 4 -6 -11 -6 -15 -1 -32 5 -38 12 -15 19 -1 30 18 13 9 -7 23
-16 31 -19z m-2069 -47 c5 0 7 -4 4 -10 -15 -25 -70 5 -60 32 6 15 8 15 26 -3
10 -10 24 -19 30 -19z"/>
<path d="M1230 2491 c0 -5 8 -12 18 -14 13 -4 13 -5 -4 -6 -23 -1 -48 -24 -37
-34 3 -4 15 -7 25 -7 19 0 43 44 32 61 -7 12 -34 12 -34 0z"/>
<path d="M1065 2419 c-12 -19 2 -21 32 -5 l28 15 -27 1 c-15 0 -30 -5 -33 -11z"/>
<path d="M1550 2410 c0 -5 12 -10 26 -10 14 0 23 4 19 10 -3 6 -15 10 -26 10
-10 0 -19 -4 -19 -10z"/>
<path d="M940 2440 c-24 -8 -24 -8 -3 -9 16 -1 25 -9 29 -27 7 -28 15 -22 28
24 8 24 -6 27 -54 12z"/>
<path d="M1719 2326 c16 -19 44 -21 39 -3 -3 6 -15 14 -28 15 -21 3 -22 2 -11
-12z"/>
<path d="M2110 2160 c0 -5 5 -10 11 -10 5 0 7 5 4 10 -3 6 -8 10 -11 10 -2 0
-4 -4 -4 -10z"/>
<path d="M2236 1941 c-17 -7 -17 -8 -2 -24 23 -23 29 -21 20 5 -6 20 -5 21 10
9 14 -12 16 -12 10 3 -7 18 -10 18 -38 7z"/>
<path d="M619 2243 c-13 -16 -12 -17 4 -4 9 7 17 15 17 17 0 8 -8 3 -21 -13z"/>
<path d="M635 2230 c-18 -20 -15 -38 4 -25 15 9 33 45 23 45 -5 0 -17 -9 -27
-20z"/>
<path d="M510 2185 c-19 -19 -29 -35 -22 -35 7 0 12 -8 12 -18 0 -10 3 -22 7
-25 10 -11 33 14 33 35 0 14 5 18 15 15 8 -4 17 -1 21 4 7 11 -14 59 -26 59
-3 0 -21 -16 -40 -35z"/>
<path d="M460 2061 c-6 -12 -7 -21 -1 -21 10 0 24 30 17 37 -2 3 -9 -5 -16
-16z"/>
<path d="M291 1910 c-19 -34 -20 -40 -6 -40 12 0 14 -4 5 -19 -15 -30 -12 -47
5 -25 14 18 15 17 9 -11 -5 -29 -5 -29 10 -11 18 22 22 86 5 86 -7 0 -8 11 -4
30 9 40 3 38 -24 -10z"/>
<path d="M242 1640 c0 -14 2 -19 5 -12 2 6 2 18 0 25 -3 6 -5 1 -5 -13z"/>
<path d="M1632 2222 c2 -18 -28 -72 -42 -72 -8 0 19 -15 61 -34 266 -115 467
-354 541 -638 16 -61 22 -115 22 -204 1 -115 0 -122 -25 -155 -15 -19 -51 -48
-80 -64 -48 -26 -64 -29 -134 -29 -99 1 -174 29 -302 115 l-88 59 -25 -28 -25
-27 85 -47 c212 -119 401 -155 527 -103 l36 15 -7 -31 c-3 -18 -22 -71 -41
-118 -18 -47 -32 -87 -31 -89 7 -6 76 125 106 201 49 124 63 198 63 342 0 147
-21 254 -73 378 -96 224 -288 420 -499 507 -39 16 -70 26 -69 22z"/>
<path d="M1224 2026 c-8 -20 -1 -49 12 -53 6 -2 10 12 10 32 0 36 -12 47 -22
21z"/>
<path d="M570 1957 c-90 -91 -178 -255 -215 -398 -24 -92 -35 -254 -25 -356
11 -104 55 -246 107 -345 41 -78 55 -87 19 -12 -61 127 -92 294 -83 443 15
219 108 433 264 601 37 41 63 71 56 67 -6 -4 -18 -2 -25 5 -43 40 -54 39 -98
-5z"/>
<path d="M1230 1933 c-36 -13 -60 -47 -60 -83 0 -38 29 -80 55 -80 20 0 19 6
-5 30 -27 27 -26 74 3 97 17 15 36 46 25 42 -2 0 -10 -3 -18 -6z"/>
<path d="M1103 1745 c-13 -9 -27 -34 -34 -57 -13 -50 8 -116 47 -147 27 -21
30 -38 9 -65 -14 -18 -16 -17 -55 18 -50 45 -87 47 -132 7 -29 -26 -33 -35
-33 -81 0 -44 4 -55 28 -76 46 -39 89 -33 141 20 l43 45 38 -39 c52 -53 66
-39 15 16 -22 24 -40 47 -40 51 0 19 41 73 55 73 18 0 20 17 3 23 -10 3 -10 7
0 19 12 15 27 66 16 55 -3 -3 -4 -7 -3 -9 1 -1 -10 -16 -25 -33 l-28 -30 -29
35 c-53 63 -31 170 36 170 13 0 27 -5 30 -10 4 -6 11 -7 17 -4 16 10 -21 34
-52 34 -14 0 -35 -7 -47 -15z m-34 -280 l34 -33 -29 -36 c-16 -19 -41 -41 -57
-47 -81 -34 -123 111 -43 149 29 14 55 5 95 -33z"/>
<path d="M798 1152 c-72 -75 -130 -157 -177 -249 -38 -77 -39 -90 -3 -65 45
32 134 74 187 88 101 27 179 12 265 -51 26 -19 74 -47 106 -63 51 -23 71 -27
154 -27 91 0 98 2 180 42 79 39 220 143 220 162 0 24 -228 140 -240 122 -11
-17 -92 -52 -157 -67 -156 -37 -330 17 -435 134 l-36 40 -64 -66z"/>
<path d="M1889 429 c-309 -210 -736 -236 -1062 -66 -34 17 -65 33 -69 35 -7 4
-118 -178 -118 -194 0 -16 172 -98 266 -127 137 -43 247 -60 394 -60 267 0
520 78 733 226 57 40 69 51 43 41 -9 -4 -36 25 -78 85 l-65 90 -44 -30z m-52
-138 c1 -11 -6 -21 -19 -24 -11 -3 -18 -12 -16 -19 6 -17 48 -23 48 -8 0 8 -9
10 -22 7 -22 -6 -22 -5 -4 8 10 8 23 12 27 9 17 -10 8 -35 -17 -46 -28 -13
-44 -1 -44 36 0 13 -5 16 -17 11 -10 -4 -27 -10 -38 -13 -17 -5 -15 -7 10 -12
35 -6 43 -30 19 -54 -25 -26 -58 -17 -62 17 -3 21 -8 27 -19 23 -8 -3 -19 -6
-25 -6 -6 0 0 -8 12 -18 19 -16 21 -22 11 -40 -8 -15 -21 -22 -41 -22 -27 0
-30 3 -30 30 0 28 -2 30 -27 24 -35 -8 -42 -14 -19 -14 14 0 17 -6 14 -25 -3
-14 -1 -25 6 -25 20 0 -18 -20 -39 -20 -18 0 -18 1 3 16 28 19 28 34 2 34 -12
0 -27 6 -34 12 -10 10 3 17 67 36 45 13 117 40 161 62 97 46 91 45 93 21z
m-827 -26 c6 -8 10 -20 8 -26 -2 -6 -12 0 -21 15 -18 27 -8 37 13 11z m-46
-30 c110 -33 191 -45 316 -46 73 0 98 -3 83 -9 -15 -6 -21 -15 -17 -25 5 -11
-1 -15 -25 -15 -35 0 -43 -19 -8 -21 l22 -2 -22 -4 c-13 -2 -23 -9 -23 -14 0
-12 37 -11 62 2 16 9 19 8 16 -3 -5 -14 -76 -23 -95 -11 -20 14 -3 61 26 72
23 8 21 10 -23 10 -44 1 -48 -1 -43 -20 4 -16 3 -18 -8 -9 -21 17 -58 8 -71
-18 -10 -20 -12 -21 -18 -6 -9 24 23 57 51 51 13 -2 23 0 23 4 0 5 -17 9 -37
9 -21 0 -76 7 -121 17 -70 13 -85 14 -92 3 -7 -11 -14 -12 -35 -2 -32 15 -58
16 -50 2 3 -5 17 -10 29 -10 27 0 51 -24 41 -40 -3 -5 -16 -10 -28 -10 -17 0
-19 -2 -7 -10 8 -5 11 -12 8 -16 -4 -3 -21 8 -39 25 -35 35 -33 52 3 27 25
-18 58 -21 58 -7 0 6 -14 11 -31 13 -38 4 -60 31 -41 50 9 9 19 10 42 1 17 -6
30 -8 30 -4 0 4 -19 14 -42 23 -65 25 -26 21 66 -7z m31 -67 c-8 -36 -20 -55
-27 -41 -8 13 11 73 23 73 7 0 8 -12 4 -32z m113 -6 c16 -20 15 -34 -2 -58
-12 -15 -17 -16 -27 -7 -10 10 -9 14 4 19 19 7 23 39 7 49 -18 11 -50 -6 -56
-31 -7 -28 -24 -33 -24 -6 1 49 11 61 48 55 21 -3 43 -12 50 -21z m117 -73
c-7 -11 -52 -12 -58 -1 -3 4 10 8 29 9 19 1 32 -3 29 -8z"/>
<path d="M1714 219 c-3 -6 1 -18 10 -27 15 -15 17 -15 32 0 9 9 13 21 10 27
-9 14 -43 14 -52 0z"/>
<path d="M1622 173 c2 -10 13 -19 26 -21 17 -3 22 2 22 17 0 16 -6 21 -26 21
-19 0 -25 -5 -22 -17z"/>
</g>
</svg>
